<svg id="Calque_1" data-name="Calque 1" xmlns="http://www.w3.org/2000/svg" viewBox="0 0 361.42 361.42"><circle cx="180.71" cy="180.71" r="178.21" style="fill:none;stroke:#fff;stroke-miterlimit:10;stroke-width:5px"/><text transform="translate(116.31 315.66)" style="font-size:19.265840530395508px;fill:#fff;font-family:ArialMT, Arial">RES<tspan x="39.61" y="0" style="letter-spacing:-0.07420841555001961em">T</tspan><tspan x="49.95" y="0">AURAN</tspan><tspan x="117.39" y="0" style="letter-spacing:-0.01809590461158265em">T</tspan></text><text transform="translate(43.2 250.29)" style="font-size:81.87986755371094px;fill:#fff;stroke:#fff;stroke-miterlimit:10;stroke-width:0.25px;font-family:Vivaldii, Vivaldi">Yannick</text><path d="M122.72,306.47a452.81,452.81,0,0,1,93.2-22.64,400.28,400.28,0,0,1,47.92-3.77,375,375,0,0,1,48,2.34l0,.2c-16-.73-32-1.08-47.92-.54s-31.91,1.42-47.76,3.36a454.86,454.86,0,0,0-47.2,8.23,462.91,462.91,0,0,0-46.15,13Z" transform="translate(-19.29 -19.29)" style="fill:#fff"/><path d="M265.19,75.91a49.89,49.89,0,0,0-18.82,3.66c-10.44-12.54-28-20.78-47.82-20.78-19.18,0-36.13,7.71-46.68,19.53a52,52,0,0,0-15.61-2.41c-24.8,0-44.91,17-44.91,37.92,0,20.53,19.34,37.21,43.46,37.86v61.23a151.5,151.5,0,0,1,130.38,0V149.31c24,0,43.45-16.43,43.45-36.7S289.19,75.91,265.19,75.91ZM172.35,184c-1.64,0-3-9.71-3-21.68s1.34-21.67,3-21.67,3,9.7,3,21.67S174,184,172.35,184ZM200,184c-1.64,0-3-9.71-3-21.68s1.34-21.67,3-21.67,3,9.7,3,21.67S201.62,184,200,184Zm27.62,0c-1.64,0-3-9.71-3-21.68s1.34-21.67,3-21.67,3,9.7,3,21.67S229.24,184,227.59,184Z" transform="translate(-19.29 -19.29)" style="fill:#fff"/></svg>