<svg xmlns="http://www.w3.org/2000/svg" height="800" width="1200" viewBox="-28.134615 -9.2778 243.83333 55.6668"><path fill="#ffcb08" d="M21.9217 3.842c-6.4845-.0321-6.859.0105-9.008 1.042-.484.2324-1.0495.544-1.257.6914-.621.442-1.7595 1.561-1.7595 1.7295 0 .0862-.0339.1563-.0752.1563-.199 0-1.0951 1.6814-1.0967 2.0576-.0006.1406-.0336.2912-.0732.335-.2644.2924-.348 2.8414-.129 3.9345.074.3687.1678.8395.209 1.0469.0785.3938.42 1.1059.8106 1.6924.126.1891.2667.4038.3125.4775.2074.3336 1.5951 1.6138 2.1817 2.0117.8175.5547 1.81 1.1575 2.0644 1.255.1073.041.5345.2588.9492.4833.4148.2246.9235.4788 1.1309.5655.2074.0867.9055.4112 1.5508.7207 3.449 1.6543 3.7448 1.8248 4.038 2.3252.3019.515.311 1.0531.0255 1.4726-.1153.1693-.2727.3073-.3506.3077-.078.0003-.1691.045-.2022.0986-.062.0998-7.172.0535-10.6965-.0693l-1.5713-.0547v-1.8301c0-1.5711-.018-1.831-.126-1.831-.069 0-.125.0378-.125.0839 0 .046-.043.084-.0957.084-.104 0-.9934.7247-1.1025.8984-.0369.0587-.1815.166-.3213.2383-.1398.0723-.469.329-.7305.5694-.2615.2404-.6507.5575-.8652.705-.2145.1477-.4024.298-.418.334-.0424.0983-.867.7745-.9443.7745-.037 0-.1856.1251-.3301.2783-.145.154-.6592.5965-1.143.985-.4839.3885-.9543.782-1.046.874-.0917.092-.3054.2615-.4746.377-.1692.115-.5202.4115-.7803.658L0 29.7696l.5283.491c.2905.2703.555.4928.5879.4941.033.0013.3532.2663.7119.5889.3587.3225.6968.587.752.587.0551 0 .1497.0654.21.1464.0602.081.3165.3174.5693.5244.2528.207.535.4378.628.5137.0928.076.4104.3402.705.5869.2947.2467.6968.5694.8936.7168.1968.1474.488.398.6475.5576.1595.1595.4366.3853.6152.501.1786.1157.5507.4193.8272.6758.2765.2565.5474.467.6015.4678.0541.0007.1858.1123.293.248.3786.4793.3996.3977.4238-1.6504l.0225-1.9062.377.0107c.2073.0055 2.3846.0174 4.8388.0274 3.1068.0126 4.4619.0458 4.4619.1084 0 .1025 2.6081.0327 3.9385-.1055 1.0436-.1084 2.3577-.3662 2.5556-.501.0461-.0314.3104-.1456.587-.254.2764-.1083.5218-.22.5448-.248.081-.0983.681-.4209.7832-.4209.057 0 .2349-.1217.3955-.2715.1607-.1497.436-.3861.6123-.5244.3632-.2848 1.273-1.4222 1.541-1.9267.2718-.5117.6837-1.8074.8194-2.5781.2716-1.5434.0973-3.58-.4131-4.831-.1207-.296-.2197-.5703-.2197-.6095 0-.0863-.4142-.7472-.542-.8642-.0504-.046-.2715-.3187-.4912-.6065-.2198-.2877-.4767-.5641-.5703-.6142-.1648-.0882-.3078-.2045-.8428-.6807-.1392-.1239-.391-.2892-.5586-.3681-.1676-.079-.4354-.2516-.5957-.3828-.1603-.1313-.322-.2383-.3594-.2383-.0374 0-.2643-.1317-.5039-.293-.2395-.1613-.4873-.294-.5508-.294-.1345 0-.7958-.347-.8369-.4394-.0153-.0345-.0812-.0625-.1464-.0625-.0653 0-.1182-.0379-.1182-.084 0-.046-.062-.084-.1367-.084-.0748 0-.3481-.1067-.6074-.2373-1.3715-.6902-2.0703-1.0251-2.1338-1.0224-.039.0016-.1737-.07-.2989-.1592-.1251-.089-.3381-.1888-.4736-.2217-.1354-.0328-.6328-.271-1.1054-.5293-.4726-.2583-1.0192-.5516-1.2149-.6513-.1957-.0998-.4673-.2983-.6035-.4414-.2269-.2384-.248-.3104-.248-.8574 0-.573.0111-.6067.2763-.8281.152-.127.3955-.2477.541-.2695.1455-.0219 2.7532-.0202 5.795.0039l5.5305.0439-.0156-3.5117-.0166-3.5108-.9892-.0576c-.5455-.0315-3.291-.0694-6.102-.0834zm10.2605.0166l.0283 11.375c.0247 10.122.0425 11.421.1612 11.794.2488.7813.5095 1.4171.749 1.8233.1312.2226.2392.4419.2392.4873 0 .2926 2.191 2.5918 2.4698 2.5918.0304 0 .2138.1037.4072.2305.9434.6182 1.3057.7943 2.331 1.1367 1.1253.3757 2.153.6244 3.171.7666 1.0902.1522 3.776.1538 4.7763.003 1.4667-.2214 2.546-.4956 3.3223-.8448.1452-.0654.3278-.1192.4052-.1192.167 0 1.52-.7086 1.7608-.9219.0922-.0816.3061-.2187.4746-.3047.4013-.2047 1.808-1.5099 1.9746-1.832.0715-.1383.2113-.3332.3105-.4336.2411-.244.8161-1.3013.9424-1.7334.0557-.1906.1962-.6858.3125-1.1006l.212-.755.003-11.081.003-11.082h-8.7988v10.594c0 6.5306-.0308 10.676-.0801 10.8056-.1036.2724-.6613.8896-.8037.8896-.0605 0-.1607.0504-.2227.1123-.2922.2922-1.005.4327-2.203.4327h-1.173l-.665-.3233c-.6985-.338-.891-.5195-1.2025-1.135l-.1885-.372V3.8585H32.18zm26.8175.001v29.663l7.8975-.003c8.03-.0026 8.7925-.0276 9.782-.327.161-.0488.3956-.089.5215-.089.2217 0 1.012-.3193 1.6992-.6865l.794-.4238c.3927-.2096.8724-.6126 1.6289-1.3681.228-.2277.74-.942.999-1.3946.2236-.3907.7301-1.844.8994-2.579.1434-.623.2186-2.2456.1396-3.0167-.0603-.5891-.4182-1.9507-.5615-2.1367-.0355-.046-.1127-.2346-.1709-.419-.1588-.5034-1.159-1.713-1.873-2.2646-.1778-.1373-.4116-.3303-.5196-.4297-.108-.0993-.3485-.2477-.5351-.33-.1867-.0824-.3399-.1736-.3399-.2022 0-.0516.4649-.419.5303-.419.0625 0 1.3975-1.318 1.3975-1.3798 0-.0334.0705-.161.1572-.2832.2477-.3494.7312-1.2922.8476-1.6533.0583-.1806.1486-.3817.2002-.4463.0624-.0782.091-.654.087-1.7178-.0058-1.4896-.0211-1.6481-.2276-2.2978-.2546-.8012-.8413-2.0248-1.1484-2.3955-.5402-.652-1.177-1.2748-1.6543-1.6162-.6633-.4744-1.8267-1.0418-2.7022-1.3184-1.35-.4255-2.26-.4658-10.4-.4658h-7.449zm8.631 6.4405l2.3672.0274c2.568.029 2.5488.026 3.1563.537.652.5487.9069 1.8136.6308 3.1348-.0964.4619-.6637 1.2296-1.0674 1.4453-.3383.1808-.4513.1892-2.7197.2149l-2.3672.0273v-5.3867zm.0625 11.0565c.0346-.0142 1.2727-.0074 2.751.0156l2.6875.042.3526.2334c.194.1286.4927.4497.663.713l.3096.4784.001 1.2217c.001 1.1186-.0154 1.2573-.2011 1.6543-.1116.2385-.2537.4336-.3164.4336-.0627 0-.1352.0539-.1602.1192-.0723.1884-.6258.5142-1.0547.621-.2532.0631-1.2307.0977-2.7442.0977h-2.3506v-2.8017c0-1.5413.028-2.814.0625-2.8281z"/><path fill="#009743" stroke-width=".0838" stroke="#009743" d="M178.7307.0823c-.0602.0329-.0649.4093-.0664 1.7441l-.002 1.8643-3.372.002c-3.245.0015-3.6767.0256-5.1115.2822-1.1857.212-2.4905.9965-3.2783 1.9717-.6429.7956-1.036 1.6875-1.3526 3.0654-.0317.1383-.0822 1.797-.1123 3.6865-.0602 3.7834-.0343 3.6-.6201 4.3291-.4748.591-1.6334.9913-2.8701.9912-.6046 0-1.6602-.2443-2.0195-.4668-.4566-.2827-.9675-.7945-1.0664-1.0683-.0672-.186-.1087-2.1115-.1387-6.425l-.043-6.158-4.2949-.0215-4.294-.0225.001 6.5575c.001 3.6068.036 6.7965.0782 7.088.0924.6388.4445 1.8278.712 2.4033.5046 1.0862 1.69 2.4434 2.7792 3.1836.2713.1844.568.403.6592.4854.0913.0824.2608.1715.377.1982.116.0267.3646.136.5527.2432.3924.2235 1.4826.6697 2.0674.8457l.3984.1201v8.5401h8.7148V25.014l.6914-.2393c1.0082-.3487 2.9655-1.3258 3.4922-1.7432.6673-.5288 1.7406-1.6395 2.0498-2.121.3823-.5954.9253-1.8325 1.085-2.4718.228-.9126.3041-2.0278.3066-4.5244.0015-1.3135.025-2.4728.0528-2.5761.0818-.3056.5168-.3625 2.6015-.3379l1.9121.0225.0235 1.8232c.0139 1.1197.054 1.8223.1045 1.8223a.0833.0833 0 00.082-.084c0-.0461.0469-.0838.1045-.084.0576-.0002.394-.2645.747-.587.3531-.3224.674-.5859.7139-.5859.0398 0 .2976-.213.5722-.4726.2747-.2597.632-.5578.794-.6631.162-.1053.5203-.4017.7969-.6582.2765-.2565.5313-.466.5654-.4668.0341-.0008.2626-.1805.5078-.3994.5454-.487 2.14-1.8117 2.6074-2.166.1882-.1427.5493-.4551.8028-.6944l.461-.4355-.5753-.541c-.3163-.2979-.625-.542-.6855-.542-.0606 0-.1787-.0858-.2627-.1904-.084-.1047-.3788-.3681-.6553-.586-.2765-.2179-.5787-.4666-.6709-.5527-.0922-.0862-.5714-.484-1.0654-.8838-.494-.4-1.0094-.8385-1.1455-.9746-.1362-.1362-.2813-.248-.3223-.248-.041 0-.3608-.2634-.711-.586-.35-.3212-.675-.5855-.715-.5855-.0428 0-.3008-.2094-.5732-.4658-.2724-.2565-.6457-.5631-.8301-.6807-.1843-.1175-.4008-.2941-.4805-.3925-.0345-.0427-.06-.0696-.08-.0586zm-42.503 2.8916a16.4785 16.4785 0 00-1.539.0459c-1.646.1282-3.2813.4654-4.2266.872-.1713.0738-.3754.1348-.454.1348-.1815 0-1.3768.6122-1.8165.9307-.1835.1329-.3794.2421-.4346.2421-.0551 0-.2279.1224-.3847.2725-.1569.1501-.5215.477-.8096.7256-.288.2485-.5234.488-.5234.5322 0 .0443-.1449.255-.3223.4688-.5412.6522-.7446 1.0214-1.0927 1.9814-.6265 1.727-.5957 1.0394-.5957 13.332v11.01h8.6299V24.975h6.6201v8.5469h8.6309V22.566c-.0003-9.505-.0176-11.054-.13-11.6965-.1999-1.1433-.8885-2.9178-1.287-3.3164-.0853-.0852-.3079-.3799-.4942-.6543-.1863-.2743-.4277-.5572-.537-.6289-.1095-.0716-.402-.3228-.6495-.5576-.2474-.2347-.5253-.4503-.6172-.4794-.0919-.0292-.3394-.1767-.5508-.3272-.49-.3498-1.35-.7806-1.84-.9237a80.811 80.811 0 01-1.095-.333c-1.34-.4158-2.92-.6499-4.475-.6748zm-14.875.8828l-4.3388.0224-4.3399.0215-.042 10.6415-.042 10.6425-.2256.3828c-.2801.4765-.3272.5144-.9472.7461-.9895.37-2.618.1911-3.209-.3525-.1136-.1045-.2763-.341-.3613-.5254-.1478-.32-.1543-.8066-.1563-10.824-.001-5.7685-.0247-10.547-.0527-10.62-.0454-.1185-.504-.1328-4.3155-.1328h-4.2646v10.496c0 6.5505-.0312 10.603-.082 10.7805-.2144.7474-.8917 1.2211-1.9346 1.3535-.6276.0796-1.4611-.0137-1.8506-.208-.1457-.0727-.3093-.1319-.3633-.1319-.1527 0-.4204-.3402-.5957-.7549-.1534-.3628-.1604-.771-.1807-10.8515-.0116-5.761-.0215-10.5205-.0215-10.578.0002-.0824-.9189-.1054-4.3154-.1054h-4.3154v10.883c0 11.968-.016 11.539.5176 13.166.459 1.3998 1.0487 2.336 2.1328 3.3828.363.3505.686.638.7177.6386.0317.0007.3005.1676.5977.3711.7234.4953.8727.567 1.9219.921 1.0608.3578 1.7673.5324 2.7431.6786h.001c1.0205.153 3.3176.1523 4.1934-.001 1.049-.1835 2.8366-.7543 3.4219-1.0927.1558-.0901.457-.2837.6699-.4307.7699-.5317.9935-.627 1.203-.5097.1043.0583.2085.1293.2315.1572.1028.1242 1.6556 1.006 1.8438 1.0469.1152.025.3037.0851.419.1338.4526.191 1.4167.4785 2.0946.625 1.0103.2183 3.9819.2202 5.0695.003.7998-.1599 1.7622-.424 2.1787-.5977.1383-.0577.4026-.152.587-.21.1843-.058.4666-.19.6278-.293.1613-.103.5562-.3533.877-.5566.3208-.2033.8544-.6335 1.1855-.956.6726-.6552 1.5405-1.7603 1.542-1.963.0005-.0726.0955-.298.211-.5.2448-.4283.5606-1.3144.7646-2.1465.1314-.5363.146-1.5424.1729-11.669l.0293-11.083zm14.2235 6.552c.2195-.0083.4594-.0071.7276.003.827.031.987.0633 1.5508.3173.8263.3722.9517.4961 1.208 1.1875l.2158.583v5.6045h-6.625l.0234-2.954.0244-2.9532.2247-.4638c.2675-.5523.38-.6581 1.0127-.9522.5045-.2344.9791-.3471 1.6377-.372z"/></svg>